<svg width="36" height="53" viewBox="0 0 36 53" fill="none" xmlns="http://www.w3.org/2000/svg">
<path d="M35.5 26.5C35.5 33.7309 33.5083 40.2551 30.3143 44.9574C27.1185 49.6624 22.7557 52.5 18 52.5C13.2443 52.5 8.88152 49.6624 5.68569 44.9574C2.49168 40.2551 0.5 33.7309 0.5 26.5C0.5 19.2691 2.49168 12.7449 5.68569 8.04261C8.88152 3.33763 13.2443 0.5 18 0.5C22.7557 0.5 27.1185 3.33763 30.3143 8.04261C33.5083 12.7449 35.5 19.2691 35.5 26.5Z" stroke="black"/>
<path fill-rule="evenodd" clip-rule="evenodd" d="M34.5731 36.8594C31.8334 46.347 25.4447 53 18.0004 53C10.7799 53 4.55238 46.7409 1.68457 37.707C4.78647 35.6435 10.6962 33 18.5004 33C25.2654 33 30.9379 34.9863 34.5731 36.8594Z" fill="black"/>
<ellipse cx="17.5" cy="19" rx="10.5" ry="12" fill="black"/>
</svg>
