<svg width="36" height="53" viewBox="0 0 36 53" fill="none" xmlns="http://www.w3.org/2000/svg">
<path d="M35.5 26.5C35.5 33.7309 33.5083 40.2551 30.3143 44.9574C27.1185 49.6624 22.7557 52.5 18 52.5C13.2443 52.5 8.88152 49.6624 5.68569 44.9574C2.49168 40.2551 0.5 33.7309 0.5 26.5C0.5 19.2691 2.49168 12.7449 5.68569 8.04261C8.88152 3.33763 13.2443 0.5 18 0.5C22.7557 0.5 27.1185 3.33763 30.3143 8.04261C33.5083 12.7449 35.5 19.2691 35.5 26.5Z" stroke="black"/>
<path d="M12 15L10 30H12L13 27V49H17L18 40L19 49H23V27L24 30H26L24 15C23.1667 14.6667 20.8 14 18 14C15.2 14 12.8333 14.6667 12 15Z" fill="black"/>
<ellipse cx="18" cy="8.5" rx="4" ry="4.5" fill="black"/>
</svg>
