<svg width="36" height="53" viewBox="0 0 36 53" fill="none" xmlns="http://www.w3.org/2000/svg">
<path d="M35.5 26.5C35.5 33.7309 33.5083 40.2551 30.3143 44.9574C27.1185 49.6624 22.7557 52.5 18 52.5C13.2443 52.5 8.88152 49.6624 5.68569 44.9574C2.49168 40.2551 0.5 33.7309 0.5 26.5C0.5 19.2691 2.49168 12.7449 5.68569 8.04261C8.88152 3.33763 13.2443 0.5 18 0.5C22.7557 0.5 27.1185 3.33763 30.3143 8.04261C33.5083 12.7449 35.5 19.2691 35.5 26.5Z" stroke="black"/>
<path fill-rule="evenodd" clip-rule="evenodd" d="M4.10352 43.3451C4.276 38.8578 4.49953 32.6378 4.49953 31C4.49953 28.5 5.49953 24 17.4995 24C29.4995 24 31.4995 27.5 31.4995 34V44.0286C28.2013 49.5301 23.3756 53 17.9995 53C12.4041 53 7.40492 49.2412 4.10352 43.3451Z" fill="black"/>
<ellipse cx="18" cy="14.5" rx="8" ry="8.5" fill="black"/>
</svg>
