<svg width="34" height="51" viewBox="0 0 34 51" fill="none" xmlns="http://www.w3.org/2000/svg">
<circle cx="9.95938" cy="22.2167" r="3.83047" fill="black"/>
<circle cx="23.7484" cy="22.2167" r="3.83047" fill="black"/>
<path d="M33.2082 25.2811C33.2082 32.1774 31.3437 38.3981 28.3557 42.8802C25.3653 47.3658 21.289 50.0622 16.8541 50.0622C12.4191 50.0622 8.34286 47.3658 5.35247 42.8802C2.36441 38.3981 0.5 32.1774 0.5 25.2811C0.5 18.3849 2.36441 12.1641 5.35247 7.68202C8.34286 3.19643 12.4191 0.5 16.8541 0.5C21.289 0.5 25.3653 3.19643 28.3557 7.68202C31.3437 12.1641 33.2082 18.3849 33.2082 25.2811Z" stroke="black"/>
<path fill-rule="evenodd" clip-rule="evenodd" d="M3.06445 34.6095H16.6258V31.7154C16.6258 28.4822 15.631 26.7413 9.66202 26.7413C3.69305 26.7413 3.19564 28.9796 3.19564 30.2232C3.19564 30.8377 3.13237 32.7493 3.06445 34.6095Z" fill="black"/>
<path fill-rule="evenodd" clip-rule="evenodd" d="M17.083 34.6095H30.6444V31.7154C30.6444 28.4822 29.6495 26.7413 23.6806 26.7413C17.7116 26.7413 17.2142 28.9796 17.2142 30.2232C17.2142 30.8377 17.1509 32.7493 17.083 34.6095Z" fill="black"/>
</svg>
