<svg width="51" height="34" viewBox="0 0 51 34" fill="none" xmlns="http://www.w3.org/2000/svg">
<circle cx="18.3861" cy="13.7897" r="3.83047" fill="black"/>
<circle cx="32.1762" cy="13.7897" r="3.83047" fill="black"/>
<path d="M25.2811 0.500008C32.1774 0.500008 38.3981 2.36441 42.8802 5.35248C47.3658 8.34287 50.0622 12.4192 50.0622 16.8541C50.0622 21.289 47.3658 25.3653 42.8802 28.3557C38.3981 31.3438 32.1774 33.2082 25.2811 33.2082C18.3849 33.2082 12.1641 31.3438 7.68202 28.3557C3.19643 25.3653 0.5 21.289 0.5 16.8541C0.5 12.4192 3.19643 8.34287 7.68202 5.35248C12.1641 2.36441 18.3849 0.500008 25.2811 0.500008Z" stroke="black"/>
<path fill-rule="evenodd" clip-rule="evenodd" d="M11.4912 26.1825H25.0526V23.2884C25.0526 20.0552 24.0577 18.3142 18.0888 18.3142C12.1198 18.3142 11.6224 20.5526 11.6224 21.7961C11.6224 22.4107 11.5591 24.3222 11.4912 26.1825Z" fill="black"/>
<path fill-rule="evenodd" clip-rule="evenodd" d="M25.5088 26.1824H39.0702V23.2884C39.0702 20.0552 38.0753 18.3142 32.1064 18.3142C26.1374 18.3142 25.64 20.5526 25.64 21.7961C25.64 22.4106 25.5767 24.3222 25.5088 26.1824Z" fill="black"/>
</svg>
