<svg width="34" height="51" viewBox="0 0 34 51" fill="none" xmlns="http://www.w3.org/2000/svg">
<circle cx="16.8544" cy="19.9185" r="4.59657" fill="black"/>
<path d="M33.2082 25.2811C33.2082 32.1774 31.3437 38.3981 28.3557 42.8802C25.3653 47.3658 21.289 50.0622 16.8541 50.0622C12.4191 50.0622 8.34286 47.3658 5.35247 42.8802C2.36441 38.3981 0.5 32.1774 0.5 25.2811C0.5 18.3849 2.36441 12.1641 5.35247 7.68202C8.34286 3.19643 12.4191 0.5 16.8541 0.5C21.289 0.5 25.3653 3.19643 28.3557 7.68202C31.3437 12.1641 33.2082 18.3849 33.2082 25.2811Z" stroke="black"/>
<path fill-rule="evenodd" clip-rule="evenodd" d="M9.13965 33.7082H23.9624V30.5449C23.9624 27.011 22.875 25.1081 16.3509 25.1081C9.82671 25.1081 9.28303 27.5547 9.28303 28.9139C9.28303 29.5856 9.21388 31.6749 9.13965 33.7082Z" fill="black"/>
</svg>
