<svg width="51" height="34" viewBox="0 0 51 34" fill="none" xmlns="http://www.w3.org/2000/svg">
<circle cx="25.2811" cy="11.4914" r="4.59657" fill="black"/>
<path d="M25.2814 33.2082C18.3851 33.2082 12.1644 31.3437 7.68228 28.3557C3.19669 25.3653 0.500266 21.289 0.500266 16.8541C0.500266 12.4191 3.19669 8.34286 7.68229 5.35247C12.1644 2.3644 18.3851 0.499999 25.2814 0.499999C32.1776 0.499999 38.3984 2.36441 42.8805 5.35247C47.3661 8.34286 50.0625 12.4191 50.0625 16.8541C50.0625 21.289 47.3661 25.3653 42.8805 28.3557C38.3984 31.3437 32.1776 33.2082 25.2814 33.2082Z" stroke="black"/>
<path fill-rule="evenodd" clip-rule="evenodd" d="M17.5664 25.2811H32.3892V22.1179C32.3892 18.584 31.3018 16.6811 24.7776 16.6811C18.2535 16.6811 17.7098 19.1277 17.7098 20.4869C17.7098 21.1585 17.6406 23.2479 17.5664 25.2811Z" fill="black"/>
</svg>
