<svg width="36" height="53" viewBox="0 0 36 53" fill="none" xmlns="http://www.w3.org/2000/svg">
<path d="M35.5 26.5C35.5 33.7309 33.5083 40.2551 30.3143 44.9574C27.1185 49.6624 22.7557 52.5 18 52.5C13.2443 52.5 8.88152 49.6624 5.68569 44.9574C2.49168 40.2551 0.5 33.7309 0.5 26.5C0.5 19.2691 2.49168 12.7449 5.68569 8.04261C8.88152 3.33763 13.2443 0.5 18 0.5C22.7557 0.5 27.1185 3.33763 30.3143 8.04261C33.5083 12.7449 35.5 19.2691 35.5 26.5Z" stroke="black"/>
<path fill-rule="evenodd" clip-rule="evenodd" d="M12 51.4921V34.5L11 40.5H7.5C8 35 9 23.5 9 21.5C9 19 10.5 17 18 17C25.5 17 27 19 27 21.5C27 23.5 28.6667 35 29.5 40.5H26.5L25.5 33.5V50.5971C23.2168 52.1399 20.6766 53 18 53C15.8962 53 13.8767 52.4686 12 51.4921Z" fill="black"/>
<ellipse cx="18.5" cy="9.5" rx="5.5" ry="6.5" fill="black"/>
</svg>
