<svg width="27" height="25" viewBox="0 0 27 25" fill="none" xmlns="http://www.w3.org/2000/svg">
<path d="M11 11L0 11L5.64865 15L11 11Z" fill="black"/>
<path d="M27 11L16 11L21.6486 15L27 11Z" fill="black"/>
<path d="M3.11328 9L5.28125 3.25781H5.72266H6.16797L8.23047 9H7.8125H7.39453L6.8125 7.33594H4.51562L3.91406 9H3.51562H3.11328ZM5.6875 4.10156L4.76562 6.64844H6.57422L5.6875 4.10156Z" fill="black"/>
<path d="M19.1836 8.32422L22.7266 3.94531H19.4609V3.60156V3.25781H23.6992V3.59375V3.93359L20.1562 8.3125H23.6953V8.65625V9H19.1836V8.66406V8.32422Z" fill="black"/>
<path d="M3.18359 22.3242L6.72656 17.9453H3.46094V17.6016V17.2578H7.69922V17.5938V17.9336L4.15625 22.3125H7.69531V22.6562V23H3.18359V22.6641V22.3242Z" fill="black"/>
<path d="M19.1133 23L21.2812 17.2578H21.7227H22.168L24.2305 23H23.8125H23.3945L22.8125 21.3359H20.5156L19.9141 23H19.5156H19.1133ZM21.6875 18.1016L20.7656 20.6484H22.5742L21.6875 18.1016Z" fill="black"/>
</svg>
